<svg id="a2ce2c09-7c47-4652-9f6e-f1f22f07cd99" data-name="圖層 1" xmlns="http://www.w3.org/2000/svg" viewBox="0 0 24 24"><defs><style>.b401fcc0-37b6-4c05-bd40-ef703ba320a9{fill:#d96749;}</style></defs><path class="b401fcc0-37b6-4c05-bd40-ef703ba320a9" d="M21,22.75A6.38,6.38,0,0,1,18,22a6.38,6.38,0,0,1-6,0,6.38,6.38,0,0,1-6,0,6.41,6.41,0,0,1-3,.75H2v-2H3a5.21,5.21,0,0,0,3-1,5.1,5.1,0,0,0,6,0,5.1,5.1,0,0,0,6,0,5.19,5.19,0,0,0,3,1h1v2ZM17,1.25a2,2,0,1,0,2,2A2,2,0,0,0,17,1.25Zm-2.57,7L12.18,9.75l3.82,3v3.84c.53.38,1,.78,1.49,1.17a3.89,3.89,0,0,1-2.49,1,4.08,4.08,0,0,1-3-1.5,4.08,4.08,0,0,1-3,1.5,3.43,3.43,0,0,1-1-.14c-2.85-2-5-4.14-5-5.58,0-1,1-1.28,1.85-1.28a11.6,11.6,0,0,1,3.7.83L7.83,8.34,11,6.24,9,5.87,6.13,7.8,5,6.15l3.5-2.4,5.55,1a1.8,1.8,0,0,1,1.22.89l.88,1.55A5,5,0,0,0,20.5,9.75v2a7,7,0,0,1-6.07-3.52ZM10.3,10.85l.44,2.65c.92.42,2.48,1.27,3.26,1.75v-1.5Z"/></svg>