<svg id="b9953872-001d-459f-8ad4-9bfd9d4a875a" data-name="圖層 1" xmlns="http://www.w3.org/2000/svg" viewBox="0 0 24 24"><defs><style>.bdf1d97b-f776-440a-af33-d571ff70c347{fill:#3b795f;}</style></defs><path class="bdf1d97b-f776-440a-af33-d571ff70c347" d="M17.68,7.43A.53.53,0,0,1,17.41,7,5.44,5.44,0,0,0,6.58,7a.64.64,0,0,1-.07.27.55.55,0,0,1-.2.2A5.49,5.49,0,0,0,4,11.91a5.48,5.48,0,0,0,4.05,5.28,1.44,1.44,0,0,0,.95,0,2.53,2.53,0,0,0,.47-1.84A1.72,1.72,0,0,0,8.63,15a3.27,3.27,0,0,1-1.71-1.16A3.22,3.22,0,0,1,7.1,9.7a3.13,3.13,0,0,1,.79-.63,1.87,1.87,0,0,0,1-1.64,2.91,2.91,0,0,1,.16-1,3.24,3.24,0,0,1,3.05-2.22,3.28,3.28,0,0,1,1.88.62,3.23,3.23,0,0,1,1.17,1.6,3.18,3.18,0,0,1,.16,1,1.74,1.74,0,0,0,1,1.63,2.17,2.17,0,0,1,.78.63,3.09,3.09,0,0,1,.84,2.16,3.06,3.06,0,0,1-.23,1.23,3.12,3.12,0,0,1-.7,1.05,3.18,3.18,0,0,1-1,.7,3.25,3.25,0,0,1-1.23.24A3.67,3.67,0,0,0,12,16.15a3.72,3.72,0,0,0-1.09,2.6v2.1a2,2,0,0,0,.16.95,2.31,2.31,0,0,0,1.89,0,1.72,1.72,0,0,0,.17-.95V18.7a1.42,1.42,0,0,1,1.42-1.43,5.51,5.51,0,0,0,2.08-.41,5.3,5.3,0,0,0,1.75-1.18,5.24,5.24,0,0,0,1.18-1.76A5.51,5.51,0,0,0,20,11.84a5.38,5.38,0,0,0-2.31-4.43Z"/></svg>