<svg id="a1f3fca5-88fe-43bb-ac3c-1e1c737aabb3" data-name="圖層 1" xmlns="http://www.w3.org/2000/svg" viewBox="0 0 24 24"><defs><style>.a5e0e3d5-51e3-4c7c-8286-a96451f4be4e{fill:#fff;}</style></defs><path class="a5e0e3d5-51e3-4c7c-8286-a96451f4be4e" d="M18.67,11.73h1.66v1.63H18.67a7.42,7.42,0,0,1-3.34-.82,7.37,7.37,0,0,1-6.66,0,7.45,7.45,0,0,1-3.34.82H3.67V11.73H5.33a5.94,5.94,0,0,0,3.34-1.09,5.81,5.81,0,0,0,6.66,0A5.94,5.94,0,0,0,18.67,11.73Zm0-4.9h1.66V8.47H18.67a7.42,7.42,0,0,1-3.34-.82,7.37,7.37,0,0,1-6.66,0,7.45,7.45,0,0,1-3.34.82H3.67V6.83H5.33A5.92,5.92,0,0,0,8.67,5.75a5.84,5.84,0,0,0,6.66,0A5.92,5.92,0,0,0,18.67,6.83Zm0,9.79h1.66v1.63H18.67a7.42,7.42,0,0,1-3.34-.82,7.37,7.37,0,0,1-6.66,0,7.45,7.45,0,0,1-3.34.82H3.67V16.62H5.33a5.86,5.86,0,0,0,3.34-1.09,5.81,5.81,0,0,0,6.66,0A5.86,5.86,0,0,0,18.67,16.62Z"/></svg>