<?xml version="1.0" encoding="utf-8"?>
<!-- Generator: Adobe Illustrator 25.2.3, SVG Export Plug-In . SVG Version: 6.00 Build 0)  -->
<svg version="1.1" id="圖層_1" xmlns="http://www.w3.org/2000/svg" xmlns:xlink="http://www.w3.org/1999/xlink" x="0px" y="0px"
	 viewBox="0 0 24 24" style="enable-background:new 0 0 24 24;" xml:space="preserve">
<style type="text/css">
	.st0{fill:#8661BD;}
</style>
<path class="st0" d="M16.5,12.1L15.5,11l-4.9,4.9l-2.1-2.1l-1.1,1.1l3.2,3.2L16.5,12.1z M19,4h-1V2h-2v2H8V2H6v2H5C3.9,4,3,4.9,3,6
	l0,14c0,0.5,0.2,1,0.6,1.4C4,21.8,4.5,22,5,22h14c1.1,0,2-0.9,2-2V6C21,4.9,20.1,4,19,4z M19,20H5V9h14V20z"/>
</svg>
