<svg id="ed442e12-2ed1-4c1c-bcde-f7fe4593ce30" data-name="圖層 1" xmlns="http://www.w3.org/2000/svg" viewBox="0 0 24 24"><defs><style>.ac201817-1cf4-4e27-895e-1aa9bfe6636b{fill:#fff;}</style></defs><path class="ac201817-1cf4-4e27-895e-1aa9bfe6636b" d="M21.41,11.58l-9-9A2,2,0,0,0,11,2H4A2,2,0,0,0,2,4v7a2,2,0,0,0,.59,1.42l9,9A2,2,0,0,0,13,22a2,2,0,0,0,1.41-.59l7-7A2,2,0,0,0,22,13,2,2,0,0,0,21.41,11.58ZM13,20,4,11V4h7l9,9Z"/><path class="ac201817-1cf4-4e27-895e-1aa9bfe6636b" d="M6.5,8A1.5,1.5,0,1,0,5,6.5,1.5,1.5,0,0,0,6.5,8Z"/><path class="ac201817-1cf4-4e27-895e-1aa9bfe6636b" d="M8.9,12.55A2.06,2.06,0,0,0,9.5,14L13,17.5,16.5,14a2.05,2.05,0,0,0-2.9-2.9l-.6.6-.6-.59A2,2,0,0,0,11,10.5,2.05,2.05,0,0,0,8.9,12.55Z"/></svg>