<svg width="20" height="20" viewBox="0 0 20 20" fill="none" xmlns="http://www.w3.org/2000/svg">
<circle cx="10" cy="10" r="10" fill="white"/>
<circle cx="10" cy="10" r="9.5" stroke="black" stroke-opacity="0.12"/>
<path d="M12.9566 7.62167C12.9146 7.59564 12.88 7.55921 12.8561 7.51588C12.8322 7.47254 12.8199 7.42377 12.8203 7.37426C12.6835 5.91847 11.4773 4.79169 9.99761 4.79169C8.51788 4.79169 7.3122 5.9176 7.17496 7.37383C7.17526 7.42327 7.16293 7.47197 7.13913 7.51528C7.11533 7.55859 7.08087 7.59506 7.03902 7.62123C6.66505 7.88385 6.36005 8.23335 6.15009 8.63984C5.94013 9.04634 5.83145 9.49776 5.83334 9.95553C5.83334 11.2742 6.73684 12.3745 7.94253 12.7035C8.16202 12.7586 8.35381 12.7855 8.43606 12.73C8.60014 12.6484 8.76508 11.9348 8.68283 11.7694C8.62741 11.6874 8.43606 11.6049 8.24384 11.5498C7.88971 11.4525 7.57725 11.2413 7.35449 10.9486C7.13174 10.656 7.01101 10.2981 7.01088 9.92992C7.01088 9.48937 7.17496 9.10524 7.44987 8.8014C7.55896 8.66468 7.72261 8.5553 7.86028 8.47283C8.16159 8.30789 8.35381 7.97715 8.35381 7.62036C8.35381 7.42504 8.38108 7.26184 8.43563 7.09908C8.54653 6.7641 8.75955 6.4725 9.04462 6.26543C9.32969 6.05835 9.67242 5.94625 10.0245 5.94495C10.3766 5.94613 10.7195 6.05817 11.0047 6.26525C11.29 6.47234 11.5031 6.764 11.6141 7.09908C11.6687 7.26184 11.696 7.42504 11.696 7.62036C11.696 7.97281 11.8609 8.30529 12.1904 8.46806C12.3544 8.54618 12.4908 8.6573 12.5999 8.79446C12.8844 9.10043 13.0414 9.50384 13.0389 9.92211C13.0402 10.1425 12.9979 10.361 12.9144 10.5649C12.8309 10.7688 12.7078 10.954 12.5524 11.1099C12.397 11.2658 12.2122 11.3892 12.0089 11.473C11.8055 11.5567 11.5876 11.5992 11.3678 11.598C10.8602 11.5982 10.3734 11.8 10.0139 12.1592C9.65441 12.5184 9.45148 13.0058 9.44953 13.5147V14.6098C9.44953 14.8251 9.47724 15.0465 9.53179 15.1055C9.66816 15.2426 10.3812 15.2426 10.518 15.1055C10.5769 15.0465 10.6024 14.8316 10.6024 14.6098V13.4887C10.6024 13.0781 10.934 12.7451 11.344 12.7451C11.7148 12.7454 12.0819 12.6724 12.4245 12.5303C12.7671 12.3882 13.0784 12.1797 13.3405 11.9169C13.6027 11.6541 13.8106 11.342 13.9524 10.9985C14.0941 10.655 14.1669 10.2869 14.1666 9.91516C14.1666 9.46168 14.0571 9.01495 13.8475 8.61308C13.638 8.21122 13.3345 7.86615 12.9631 7.60734L12.9566 7.62167Z" fill="#3B795F"/>
</svg>
