<?xml version="1.0" encoding="utf-8"?>
<!-- Generator: Adobe Illustrator 25.1.0, SVG Export Plug-In . SVG Version: 6.00 Build 0)  -->
<svg version="1.1" id="レイヤー_1" xmlns="http://www.w3.org/2000/svg" xmlns:xlink="http://www.w3.org/1999/xlink" x="0px"
	 y="0px" viewBox="0 0 32 32" style="enable-background:new 0 0 32 32;" xml:space="preserve">
<style type="text/css">
	.st0{fill:#FFFFFF;stroke:#202124;}
	.st1{fill-rule:evenodd;clip-rule:evenodd;fill:#202124;}
</style>
<circle class="st0" cx="16" cy="16" r="15.5"/>
<path class="st1" d="M19.7,16c0.1,0.1,0.1,0.1,0.1,0.2c0,0.1,0,0.1,0,0.2c0,0.1,0,0.1,0,0.2c0,0.1-0.1,0.1-0.1,0.2l-3.3,3.3
	c-0.1,0.1-0.1,0.1-0.2,0.1s-0.1,0-0.2,0c-0.1,0-0.1,0-0.2,0c-0.1,0-0.1-0.1-0.2-0.1l-3.3-3.3c-0.1-0.1-0.2-0.2-0.2-0.4
	c0-0.1,0.1-0.3,0.2-0.4s0.2-0.2,0.4-0.2c0.1,0,0.3,0.1,0.4,0.2l2.9,2.9l2.9-2.9c0.1-0.1,0.1-0.1,0.2-0.1c0.1,0,0.1,0,0.2,0
	s0.1,0,0.2,0C19.6,15.9,19.7,15.9,19.7,16z"/>
<path class="st1" d="M16,11.4c0.1,0,0.3,0.1,0.4,0.2c0.1,0.1,0.2,0.2,0.2,0.4v7.2c0,0.1-0.1,0.3-0.2,0.4s-0.2,0.2-0.4,0.2
	c-0.1,0-0.3-0.1-0.4-0.2s-0.2-0.2-0.2-0.4v-7.2c0-0.1,0.1-0.3,0.2-0.4C15.7,11.5,15.9,11.4,16,11.4z"/>
</svg>
